<svg width="417" height="417" viewBox="0 0 417 417" fill="none" xmlns="http://www.w3.org/2000/svg">
<g clip-path="url(#clip0_404_5)">
<path d="M208 96C146.155 96 96 146.155 96 208C96 269.845 146.155 320 208 320C269.845 320 320 269.845 320 208C320 146.155 269.845 96 208 96ZM219.565 139.493C233.895 139.87 248.35 145.526 259.412 156.714C281.661 178.963 282.415 214.159 261.172 235.529C222.833 273.868 154.577 261.549 154.577 261.549C154.577 261.549 142.258 193.293 180.597 154.954C191.282 144.395 205.36 139.241 219.565 139.493ZM220.822 161.616L209.886 184.242L187.385 195.178L209.886 206.114L220.822 228.741L231.883 206.114L254.384 195.178L231.883 184.242L220.822 161.616Z" fill="#82B4FE"/>
</g>
<defs>
<clipPath id="clip0_404_5">
<rect width="416.314" height="416.314" fill="#FEFEFECC"/>
</clipPath>
</defs>
</svg>
