<svg width="417" height="417" viewBox="0 0 417 417" fill="none" xmlns="http://www.w3.org/2000/svg">
<g clip-path="url(#clip0_401_7)">
<path fill-rule="evenodd" clip-rule="evenodd" d="M208.896 60.0432C159.57 59.7231 119.2 97.0552 118.899 143.258C118.633 184.17 138.863 204.143 160.77 225.771C176.043 240.849 192.13 256.731 202.655 281.073C203.365 281.65 203.84 282.035 204.044 282.217C204.983 283.043 206.191 283.5 207.442 283.503C208.693 283.516 209.907 283.076 210.858 282.262C210.913 282.213 211.014 282.17 211.138 282.117C211.478 281.971 211.995 281.749 212.262 281.134C222.752 257.024 239.068 241.356 254.65 226.394C276.839 205.087 297.538 185.21 297.803 144.422C298.104 98.2181 258.223 60.3653 208.896 60.0432ZM208.036 192.392C232.46 192.551 252.392 172.582 252.553 147.79C252.714 122.998 233.044 102.771 208.619 102.612C184.194 102.453 164.263 122.422 164.101 147.214C163.94 172.006 183.611 192.233 208.036 192.392Z" fill="#82B4FE"/>
<path fill-rule="evenodd" clip-rule="evenodd" d="M176.066 297.803C171.991 297.777 168.658 302.283 168.622 307.868L168.438 336.137C168.401 341.722 171.675 346.271 175.751 346.298L238.136 346.704C242.211 346.731 245.544 342.224 245.58 336.639L245.764 308.37C245.802 302.784 242.527 298.235 238.451 298.209L176.066 297.803Z" fill="#FEFEFECC"/>
</g>
<defs>
<clipPath id="clip0_401_7">
<rect width="416.314" height="416.314" fill="white"/>
</clipPath>
</defs>
</svg>
